HIERARCHY
ROOT mixamorig:Hips
{
	OFFSET 0.000000 69.776680 0.000000
	CHANNELS 6 Xposition Yposition Zposition Xrotation Yrotation Zrotation
	JOINT mixamorig:Spine
	{
		OFFSET 0.000000 3.962402 -0.274300
		CHANNELS 6 Xposition Yposition Zposition Xrotation Yrotation Zrotation
		JOINT mixamorig:Spine1
		{
			OFFSET 0.000000 14.122147 -0.320033
			CHANNELS 6 Xposition Yposition Zposition Xrotation Yrotation Zrotation
			JOINT mixamorig:Spine2
			{
				OFFSET 0.000000 11.399124 -0.365735
				CHANNELS 6 Xposition Yposition Zposition Xrotation Yrotation Zrotation
				JOINT mixamorig:Neck
				{
					OFFSET 0.000000 9.938187 -0.411442
					CHANNELS 6 Xposition Yposition Zposition Xrotation Yrotation Zrotation
					JOINT mixamorig:Head
					{
						OFFSET 0.000000 8.579102 0.114200
						CHANNELS 6 Xposition Yposition Zposition Xrotation Yrotation Zrotation
						JOINT mixamorig:HeadTop_End
						{
							OFFSET 0.000000 25.089104 0.333900
							CHANNELS 6 Xposition Yposition Zposition Xrotation Yrotation Zrotation
							End Site
							{
								OFFSET 0.000000 25.091324 0.000000
							}
						}
					}
				}
				JOINT mixamorig:LeftShoulder
				{
					OFFSET 4.224100 8.888443 -0.424631
					CHANNELS 6 Xposition Yposition Zposition Xrotation Yrotation Zrotation
					JOINT mixamorig:LeftArm
					{
						OFFSET 8.606815 -2.106979 -0.026412
						CHANNELS 3 Xrotation Yrotation Zrotation
						JOINT mixamorig:LeftForeArm
						{
							OFFSET 18.975199 0.000000 0.000001
							CHANNELS 3 Xrotation Yrotation Zrotation
							JOINT mixamorig:LeftHand
							{
								OFFSET 19.896011 0.000000 0.000001
								CHANNELS 3 Xrotation Yrotation Zrotation
								JOINT mixamorig:LeftHandThumb1
								{
									OFFSET 2.354134 -1.272461 1.802826
									CHANNELS 6 Xposition Yposition Zposition Xrotation Yrotation Zrotation
									JOINT mixamorig:LeftHandThumb2
									{
										OFFSET 1.999432 -1.154373 1.154373
										CHANNELS 6 Xposition Yposition Zposition Xrotation Yrotation Zrotation
										JOINT mixamorig:LeftHandThumb3
										{
											OFFSET 2.113319 -1.220123 1.220126
											CHANNELS 6 Xposition Yposition Zposition Xrotation Yrotation Zrotation
											JOINT mixamorig:LeftHandThumb4
											{
												OFFSET 1.744274 -1.007057 1.007057
												CHANNELS 6 Xposition Yposition Zposition Xrotation Yrotation Zrotation
												End Site
												{
													OFFSET 1.605682 -1.003258 1.219047
												}
											}
										}
									}
								}
								JOINT mixamorig:LeftHandIndex1
								{
									OFFSET 7.198479 -0.169243 1.742686
									CHANNELS 6 Xposition Yposition Zposition Xrotation Yrotation Zrotation
									JOINT mixamorig:LeftHandIndex2
									{
										OFFSET 2.844902 0.000000 0.000000
										CHANNELS 6 Xposition Yposition Zposition Xrotation Yrotation Zrotation
										JOINT mixamorig:LeftHandIndex3
										{
											OFFSET 2.665497 0.000000 0.000000
											CHANNELS 6 Xposition Yposition Zposition Xrotation Yrotation Zrotation
											JOINT mixamorig:LeftHandIndex4
											{
												OFFSET 2.297401 0.000000 0.000000
												CHANNELS 6 Xposition Yposition Zposition Xrotation Yrotation Zrotation
												End Site
												{
													OFFSET 2.297401 0.000000 0.000300
												}
											}
										}
									}
								}
								JOINT mixamorig:LeftHandMiddle1
								{
									OFFSET 6.876549 0.000000 0.000000
									CHANNELS 6 Xposition Yposition Zposition Xrotation Yrotation Zrotation
									JOINT mixamorig:LeftHandMiddle2
									{
										OFFSET 3.256821 0.000000 0.000000
										CHANNELS 6 Xposition Yposition Zposition Xrotation Yrotation Zrotation
										JOINT mixamorig:LeftHandMiddle3
										{
											OFFSET 3.177902 0.000000 0.000000
											CHANNELS 6 Xposition Yposition Zposition Xrotation Yrotation Zrotation
											JOINT mixamorig:LeftHandMiddle4
											{
												OFFSET 2.695129 0.000000 0.000000
												CHANNELS 6 Xposition Yposition Zposition Xrotation Yrotation Zrotation
												End Site
												{
													OFFSET 2.695099 -0.000191 0.012399
												}
											}
										}
									}
								}
								JOINT mixamorig:LeftHandRing1
								{
									OFFSET 6.623886 -0.059456 -1.696961
									CHANNELS 6 Xposition Yposition Zposition Xrotation Yrotation Zrotation
									JOINT mixamorig:LeftHandRing2
									{
										OFFSET 2.958004 0.000000 0.000000
										CHANNELS 6 Xposition Yposition Zposition Xrotation Yrotation Zrotation
										JOINT mixamorig:LeftHandRing3
										{
											OFFSET 2.756901 0.000000 0.000000
											CHANNELS 6 Xposition Yposition Zposition Xrotation Yrotation Zrotation
											JOINT mixamorig:LeftHandRing4
											{
												OFFSET 2.334602 0.000000 0.000000
												CHANNELS 6 Xposition Yposition Zposition Xrotation Yrotation Zrotation
												End Site
												{
													OFFSET 2.334602 -0.000031 0.001500
												}
											}
										}
									}
								}
								JOINT mixamorig:LeftHandPinky1
								{
									OFFSET 6.046967 -0.139206 -3.244337
									CHANNELS 6 Xposition Yposition Zposition Xrotation Yrotation Zrotation
									JOINT mixamorig:LeftHandPinky2
									{
										OFFSET 2.623703 0.000000 0.000000
										CHANNELS 6 Xposition Yposition Zposition Xrotation Yrotation Zrotation
										JOINT mixamorig:LeftHandPinky3
										{
											OFFSET 2.132103 0.000000 0.000000
											CHANNELS 6 Xposition Yposition Zposition Xrotation Yrotation Zrotation
											JOINT mixamorig:LeftHandPinky4
											{
												OFFSET 1.793213 0.000000 0.000000
												CHANNELS 6 Xposition Yposition Zposition Xrotation Yrotation Zrotation
												End Site
												{
													OFFSET 1.793198 0.000099 -0.007099
												}
											}
										}
									}
								}
							}
						}
					}
				}
				JOINT mixamorig:RightShoulder
				{
					OFFSET -4.224100 8.888435 -0.398208
					CHANNELS 6 Xposition Yposition Zposition Xrotation Yrotation Zrotation
					JOINT mixamorig:RightArm
					{
						OFFSET -8.606817 -2.106972 0.026400
						CHANNELS 3 Xrotation Yrotation Zrotation
						JOINT mixamorig:RightForeArm
						{
							OFFSET -18.973604 0.000000 -0.000000
							CHANNELS 3 Xrotation Yrotation Zrotation
							JOINT mixamorig:RightHand
							{
								OFFSET -19.898298 0.000000 -0.000000
								CHANNELS 3 Xrotation Yrotation Zrotation
								JOINT mixamorig:RightHandThumb1
								{
									OFFSET -2.342537 -1.287621 1.805296
									CHANNELS 6 Xposition Yposition Zposition Xrotation Yrotation Zrotation
									JOINT mixamorig:RightHandThumb2
									{
										OFFSET -1.998871 -1.154045 1.154048
										CHANNELS 6 Xposition Yposition Zposition Xrotation Yrotation Zrotation
										JOINT mixamorig:RightHandThumb3
										{
											OFFSET -2.115639 -1.221466 1.221465
											CHANNELS 6 Xposition Yposition Zposition Xrotation Yrotation Zrotation
											JOINT mixamorig:RightHandThumb4
											{
												OFFSET -1.745159 -1.007568 1.007568
												CHANNELS 6 Xposition Yposition Zposition Xrotation Yrotation Zrotation
												End Site
												{
													OFFSET -1.638237 -1.006813 1.174085
												}
											}
										}
									}
								}
								JOINT mixamorig:RightHandIndex1
								{
									OFFSET -7.289619 -0.160568 1.788511
									CHANNELS 6 Xposition Yposition Zposition Xrotation Yrotation Zrotation
									JOINT mixamorig:RightHandIndex2
									{
										OFFSET -2.816299 0.000000 -0.000000
										CHANNELS 6 Xposition Yposition Zposition Xrotation Yrotation Zrotation
										JOINT mixamorig:RightHandIndex3
										{
											OFFSET -2.639603 0.000000 -0.000000
											CHANNELS 6 Xposition Yposition Zposition Xrotation Yrotation Zrotation
											JOINT mixamorig:RightHandIndex4
											{
												OFFSET -2.241501 0.000000 -0.000000
												CHANNELS 6 Xposition Yposition Zposition Xrotation Yrotation Zrotation
												End Site
												{
													OFFSET -2.241501 0.000000 -0.000300
												}
											}
										}
									}
								}
								JOINT mixamorig:RightHandMiddle1
								{
									OFFSET -7.060406 0.000000 -0.000000
									CHANNELS 6 Xposition Yposition Zposition Xrotation Yrotation Zrotation
									JOINT mixamorig:RightHandMiddle2
									{
										OFFSET -3.340210 0.000000 0.000000
										CHANNELS 6 Xposition Yposition Zposition Xrotation Yrotation Zrotation
										JOINT mixamorig:RightHandMiddle3
										{
											OFFSET -3.056713 0.000000 0.000000
											CHANNELS 6 Xposition Yposition Zposition Xrotation Yrotation Zrotation
											JOINT mixamorig:RightHandMiddle4
											{
												OFFSET -2.639503 0.000000 0.000000
												CHANNELS 6 Xposition Yposition Zposition Xrotation Yrotation Zrotation
												End Site
												{
													OFFSET -2.639503 -0.000008 0.000600
												}
											}
										}
									}
								}
								JOINT mixamorig:RightHandRing1
								{
									OFFSET -6.774601 0.049789 -1.636027
									CHANNELS 6 Xposition Yposition Zposition Xrotation Yrotation Zrotation
									JOINT mixamorig:RightHandRing2
									{
										OFFSET -2.923901 0.000000 0.000000
										CHANNELS 6 Xposition Yposition Zposition Xrotation Yrotation Zrotation
										JOINT mixamorig:RightHandRing3
										{
											OFFSET -2.718002 0.000000 0.000000
											CHANNELS 6 Xposition Yposition Zposition Xrotation Yrotation Zrotation
											JOINT mixamorig:RightHandRing4
											{
												OFFSET -2.379601 0.000000 0.000000
												CHANNELS 6 Xposition Yposition Zposition Xrotation Yrotation Zrotation
												End Site
												{
													OFFSET -2.379601 0.000000 -0.000300
												}
											}
										}
									}
								}
								JOINT mixamorig:RightHandPinky1
								{
									OFFSET -6.148533 -0.175697 -3.130196
									CHANNELS 6 Xposition Yposition Zposition Xrotation Yrotation Zrotation
									JOINT mixamorig:RightHandPinky2
									{
										OFFSET -2.627903 0.000000 0.000000
										CHANNELS 6 Xposition Yposition Zposition Xrotation Yrotation Zrotation
										JOINT mixamorig:RightHandPinky3
										{
											OFFSET -2.122501 0.000000 0.000000
											CHANNELS 6 Xposition Yposition Zposition Xrotation Yrotation Zrotation
											JOINT mixamorig:RightHandPinky4
											{
												OFFSET -1.792004 0.000000 0.000000
												CHANNELS 6 Xposition Yposition Zposition Xrotation Yrotation Zrotation
												End Site
												{
													OFFSET -1.792000 0.000046 -0.004500
												}
											}
										}
									}
								}
							}
						}
					}
				}
			}
		}
	}
	JOINT mixamorig:LeftUpLeg
	{
		OFFSET 7.557000 -4.826302 0.300500
		CHANNELS 6 Xposition Yposition Zposition Xrotation Yrotation Zrotation
		JOINT mixamorig:LeftLeg
		{
			OFFSET 0.315538 -24.058289 0.537030
			CHANNELS 6 Xposition Yposition Zposition Xrotation Yrotation Zrotation
			JOINT mixamorig:LeftFoot
			{
				OFFSET -0.315538 -33.061485 0.084935
				CHANNELS 6 Xposition Yposition Zposition Xrotation Yrotation Zrotation
				JOINT mixamorig:LeftToeBase
				{
					OFFSET 0.092043 -7.483322 10.511632
					CHANNELS 6 Xposition Yposition Zposition Xrotation Yrotation Zrotation
					JOINT mixamorig:LeftToe_End
					{
						OFFSET 0.082187 -0.046743 6.420126
						CHANNELS 6 Xposition Yposition Zposition Xrotation Yrotation Zrotation
						End Site
						{
							OFFSET 0.096298 -0.054795 6.419865
						}
					}
				}
			}
		}
	}
	JOINT mixamorig:RightUpLeg
	{
		OFFSET -7.557000 -4.826302 0.300500
		CHANNELS 6 Xposition Yposition Zposition Xrotation Yrotation Zrotation
		JOINT mixamorig:RightLeg
		{
			OFFSET -0.315556 -24.058254 0.712177
			CHANNELS 6 Xposition Yposition Zposition Xrotation Yrotation Zrotation
			JOINT mixamorig:RightFoot
			{
				OFFSET 0.315562 -33.061455 0.096916
				CHANNELS 6 Xposition Yposition Zposition Xrotation Yrotation Zrotation
				JOINT mixamorig:RightToeBase
				{
					OFFSET -0.092061 -7.483409 10.296515
					CHANNELS 6 Xposition Yposition Zposition Xrotation Yrotation Zrotation
					JOINT mixamorig:RightToe_End
					{
						OFFSET -0.082209 -0.046778 6.411424
						CHANNELS 6 Xposition Yposition Zposition Xrotation Yrotation Zrotation
						End Site
						{
							OFFSET -0.096323 -0.054825 6.411163
						}
					}
				}
			}
		}
	}
}
MOTION
Frames: 3
Frame Time: 0.033333
0.219347 68.685066 -0.485714 -0.285095 9.949105 -3.536939 -0.000001 3.962402 -0.274300 2.603319 -0.672810 2.332724 0.000000 14.122128 -0.320032 1.656093 -2.278674 0.845950 0.000000 11.399137 -0.365735 -2.923703 -2.285053 0.251910 0.000000 9.938197 -0.411443 -3.367574 -1.151238 -0.983951 0.000000 8.579116 0.114201 -1.349393 -3.841517 0.310224 0.000000 25.089104 0.333900 0.000000 -0.000000 0.000000 4.224103 8.888470 -0.424632 8.280037 -20.929226 3.137765 1.625316 4.497732 -76.980248 -0.000001 -36.305112 0.000000 19.884192 -19.957145 5.430791 2.354134 -1.272453 1.802828 28.897530 8.894116 20.768607 1.999422 -1.154372 1.154373 -8.694727 18.043857 -12.336299 2.113328 -1.220122 1.220124 7.946587 -11.221928 1.406947 1.744271 -1.007039 1.007059 -0.000001 -0.000005 -0.000001 7.198486 -0.169237 1.742687 0.321248 3.500382 3.987072 2.844907 0.000007 -0.000001 0.265679 2.465252 -16.816416 2.665500 -0.000004 0.000000 -0.020300 0.178494 -3.850813 2.297400 -0.000015 0.000006 -0.000003 -0.000003 0.000001 6.876548 0.000001 0.000004 0.605076 7.624338 -16.487699 3.256815 0.000005 -0.000001 0.612758 3.443009 -27.102858 3.177894 -0.000004 0.000001 0.271797 1.846632 -15.987016 2.695120 -0.000009 0.000002 -0.000001 0.000001 0.000001 6.623891 -0.059442 -1.696962 0.877101 8.006949 -34.399804 2.958005 -0.000002 0.000000 0.422008 2.000697 -17.172345 2.756896 0.000001 0.000002 0.298773 1.211750 -12.585005 2.334620 0.000006 0.000000 0.000001 0.000003 0.000003 6.046974 -0.139197 -3.244338 3.574130 13.525533 -31.383869 2.623706 0.000008 0.000001 0.487210 2.680661 -29.100786 2.132108 0.000002 -0.000003 0.074790 1.530289 -6.724083 1.793203 -0.000014 0.000001 0.000000 0.000002 0.000001 -4.224100 8.888441 -0.398210 -0.855009 5.246475 5.396728 22.093516 -2.728013 73.794750 -0.000004 32.516775 0.000019 25.457300 8.380628 4.049665 -2.342554 -1.287613 1.805293 12.593942 -8.153671 -17.222409 -1.998870 -1.154043 1.154048 6.064820 -5.313244 -13.324103 -2.115647 -1.221474 1.221469 -13.753600 7.447217 9.069847 -1.745160 -1.007585 1.007568 -0.000000 -0.000007 -0.000004 -7.289635 -0.160561 1.788510 -0.934016 0.803138 10.773198 -2.816303 -0.000000 0.000000 0.637299 -3.394051 26.746404 -2.639592 -0.000011 0.000001 -0.167841 -0.590576 17.433257 -2.241498 -0.000008 -0.000000 0.000002 0.000002 0.000003 -7.060417 -0.000002 -0.000001 0.839953 -8.113489 23.112395 -3.340207 -0.000001 0.000001 1.181246 -4.370031 38.023499 -3.056704 0.000012 0.000004 0.821937 -3.075370 31.081729 -2.639489 -0.000001 0.000002 -0.000000 0.000003 0.000000 -6.774602 0.049804 -1.636027 1.275656 -8.669018 41.005577 -2.923891 0.000004 -0.000001 0.713406 -2.594938 23.801263 -2.718002 -0.000000 0.000003 -0.130799 -0.209814 20.215111 -2.379608 -0.000010 0.000002 -0.000000 -0.000001 0.000000 -6.148537 -0.175693 -3.130197 2.500279 -10.281930 45.253073 -2.627901 -0.000009 0.000001 1.612574 -4.332252 49.089683 -2.122504 -0.000001 -0.000002 -0.378854 -2.603577 43.266772 -1.792001 0.000015 -0.000000 0.000004 -0.000001 0.000003 7.557001 -4.826308 0.300500 -28.471063 -0.342209 1.304133 0.315538 -24.058292 0.537033 67.064186 2.618815 7.077235 -0.315538 -33.061493 0.084938 4.493372 0.182785 -0.860750 0.092043 -7.483323 10.511634 -5.994841 0.425107 -5.474222 0.082186 -0.046743 6.420124 0.000001 0.000001 -0.000001 -7.557000 -4.826306 0.300501 -4.101870 -12.101552 9.621854 -0.315556 -24.058260 0.712178 12.317644 1.831901 -1.835714 0.315562 -33.061455 0.096918 -7.148624 -5.093192 -4.973713 -0.092060 -7.483409 10.296513 -2.773169 -0.000003 -0.000001 -0.082208 -0.046778 6.411420 -0.000000 0.000000 -0.000000 
0.399954 68.864136 3.190024 0.511757 8.437420 -2.634085 -0.000001 3.962405 -0.274300 2.216266 -0.256936 1.861362 -0.000000 14.122131 -0.320032 1.320653 -1.249887 0.284490 0.000000 11.399117 -0.365734 -3.217853 -1.239439 -0.283699 -0.000000 9.938181 -0.411441 -2.924324 -1.309465 -0.732111 0.000000 8.579100 0.114200 -0.381135 -4.256674 0.844487 -0.000000 25.089104 0.333898 -0.000000 0.000000 0.000000 4.224103 8.888457 -0.424629 8.097217 -21.022441 2.432441 4.324107 7.969252 -78.978304 0.000030 -32.694022 0.000024 23.868026 -14.990821 -3.994034 2.354132 -1.272471 1.802827 27.832543 9.961610 24.160724 1.999434 -1.154380 1.154375 -4.456015 10.903839 -13.932520 2.113319 -1.220124 1.220125 6.998364 -19.987941 2.374265 1.744277 -1.007046 1.007056 0.000000 0.000000 0.000001 7.198476 -0.169248 1.742688 1.471150 4.060054 0.584773 2.844905 -0.000001 0.000000 0.271729 2.485127 -17.022346 2.665508 -0.000007 0.000003 -0.019638 0.199337 -4.056422 2.297408 -0.000009 0.000001 0.000003 0.000000 0.000000 6.876543 -0.000016 0.000006 0.977810 8.746243 -18.138134 3.256816 0.000009 0.000001 0.611823 3.441104 -27.081492 3.177893 0.000006 -0.000001 0.271297 1.845037 -15.970326 2.695107 0.000006 0.000003 0.000000 -0.000002 -0.000000 6.623896 -0.059459 -1.696960 1.077427 8.345165 -36.267113 2.958014 -0.000008 -0.000001 0.415462 1.985025 -17.002180 2.756909 0.000015 0.000001 0.293499 1.195625 -12.414085 2.334615 0.000015 -0.000003 0.000001 -0.000000 0.000002 6.046970 -0.139214 -3.244339 4.137720 14.274668 -32.287001 2.623694 0.000009 0.000002 0.486427 2.678937 -29.081962 2.132099 -0.000006 -0.000001 0.074448 1.528437 -6.705300 1.793190 -0.000001 -0.000002 0.000000 0.000000 0.000000 -4.224097 8.888412 -0.398208 -0.860277 5.573557 5.481427 16.311014 -2.509328 72.699263 0.000008 33.397125 -0.000002 26.503325 6.496387 3.270033 -2.342540 -1.287613 1.805293 12.230978 -7.969373 -17.507185 -1.998883 -1.154033 1.154040 5.750131 -5.677850 -13.140416 -2.115644 -1.221475 1.221460 -13.830018 7.698066 9.048484 -1.745161 -1.007582 1.007567 0.000002 -0.000002 0.000001 -7.289625 -0.160557 1.788510 -1.010265 1.145070 10.974194 -2.816290 -0.000004 0.000002 0.637993 -3.395408 26.761509 -2.639599 -0.000003 0.000004 -0.167689 -0.592155 17.448360 -2.241497 0.000003 0.000002 0.000001 -0.000001 0.000002 -7.060402 -0.000001 -0.000001 0.568639 -7.468972 23.643176 -3.340212 0.000003 0.000002 1.182073 -4.371128 38.037149 -3.056696 0.000005 0.000003 0.822442 -3.076200 31.091499 -2.639488 -0.000001 0.000003 -0.000000 0.000003 0.000000 -6.774600 0.049796 -1.636029 1.265191 -8.658407 41.226260 -2.923892 -0.000002 -0.000001 0.716042 -2.599627 23.855476 -2.718000 -0.000023 0.000001 -0.130059 -0.215376 20.269655 -2.379615 -0.000015 0.000003 0.000000 -0.000001 -0.000000 -6.148523 -0.175711 -3.130196 2.438152 -10.190914 45.626026 -2.627893 0.000005 0.000001 1.615121 -4.334850 49.125739 -2.122497 0.000007 -0.000002 -0.377524 -2.607401 43.302672 -1.792009 0.000030 -0.000001 0.000001 0.000001 0.000003 7.557000 -4.826312 0.300499 -32.783532 -0.490931 -1.584649 0.315537 -24.058292 0.537027 59.859894 4.480542 6.858255 -0.315539 -33.061481 0.084936 0.992790 0.594816 -2.727329 0.092042 -7.483322 10.511632 -5.228271 0.210415 -2.708333 0.082186 -0.046742 6.420124 0.000001 -0.000001 0.000001 -7.557001 -4.826309 0.300500 -1.435160 -12.341997 9.094085 -0.315555 -24.058266 0.712177 12.149078 1.528458 -2.211977 0.315561 -33.061455 0.096918 -9.244261 -2.698952 -4.833743 -0.092060 -7.483409 10.296514 -2.707267 -0.000001 -0.000001 -0.082208 -0.046778 6.411420 -0.000000 0.000000 -0.000000 
0.638358 68.631729 6.897065 1.396524 6.092737 -1.696314 0.000000 3.962399 -0.274300 1.742926 0.232446 1.390791 0.000000 14.122130 -0.320032 1.189310 -0.070742 -0.010986 -0.000000 11.399122 -0.365733 -3.312096 -0.061147 -0.540019 -0.000000 9.938191 -0.411442 -3.121415 -1.251189 -1.091544 0.000000 8.579098 0.114199 0.167239 -4.499403 0.960836 -0.000000 25.089088 0.333899 0.000000 -0.000000 0.000000 4.224102 8.888458 -0.424632 7.521386 -19.869749 0.240300 7.610257 12.305075 -79.228132 0.000013 -32.034998 0.000005 32.365712 -11.114738 -15.322949 2.354127 -1.272455 1.802825 26.732915 11.080679 27.786880 1.999420 -1.154369 1.154370 4.526249 11.647268 -14.819178 2.113325 -1.220118 1.220126 6.389806 -24.187862 1.896342 1.744277 -1.007055 1.007055 0.000002 -0.000001 0.000003 7.198480 -0.169230 1.742685 2.784290 4.353348 -1.311123 2.844903 0.000000 -0.000002 0.275460 2.497242 -17.147745 2.665499 0.000001 0.000003 -0.019173 0.212014 -4.181507 2.297409 -0.000010 0.000000 0.000001 -0.000001 0.000000 6.876541 -0.000014 -0.000001 1.247581 9.508270 -18.726195 3.256819 -0.000001 0.000003 0.610886 3.439149 -27.059779 3.177898 0.000013 -0.000000 0.270808 1.843505 -15.954337 2.695117 -0.000017 -0.000000 0.000003 -0.000001 -0.000002 6.623883 -0.059457 -1.696961 1.201607 8.534435 -36.867152 2.957991 0.000001 0.000002 0.412946 1.978972 -16.936613 2.756912 0.000003 -0.000000 0.291508 1.189420 -12.348222 2.334606 -0.000001 -0.000000 0.000000 -0.000000 -0.000002 6.046971 -0.139196 -3.244335 4.218385 14.408497 -32.278347 2.623717 -0.000001 -0.000002 0.487736 2.681804 -29.113316 2.132100 -0.000003 0.000001 0.075009 1.531532 -6.736584 1.793197 -0.000006 0.000003 0.000001 -0.000001 0.000000 -4.224102 8.888432 -0.398208 -0.784121 6.381130 3.869971 10.664967 -1.627277 72.742546 -0.000029 33.865714 0.000016 26.095829 5.164864 3.122575 -2.342537 -1.287619 1.805298 12.435334 -7.282888 -17.169494 -1.998875 -1.154040 1.154047 5.104395 -5.979275 -13.198505 -2.115636 -1.221476 1.221465 -13.898155 7.922616 9.030002 -1.745157 -1.007578 1.007566 0.000000 -0.000004 -0.000008 -7.289621 -0.160563 1.788514 -1.097824 1.464651 11.275849 -2.816297 -0.000015 0.000000 0.634552 -3.388612 26.685940 -2.639604 0.000011 0.000001 -0.168454 -0.584321 17.373006 -2.241493 -0.000003 0.000001 0.000002 -0.000000 0.000000 -7.060407 -0.000006 0.000004 0.265910 -6.785758 24.208938 -3.340213 0.000003 -0.000001 1.182748 -4.372056 38.048785 -3.056705 0.000002 0.000002 0.822794 -3.076786 31.098394 -2.639494 -0.000008 0.000004 0.000000 -0.000001 -0.000001 -6.774587 0.049792 -1.636025 1.261684 -8.658652 41.584282 -2.923897 0.000003 0.000001 0.719804 -2.606249 23.931538 -2.718008 -0.000005 -0.000004 -0.129010 -0.223176 20.346165 -2.379606 0.000009 -0.000001 -0.000000 -0.000001 0.000003 -6.148522 -0.175703 -3.130194 2.336663 -10.050660 46.145615 -2.627885 0.000013 0.000002 1.610549 -4.330188 49.060757 -2.122501 0.000019 -0.000000 -0.379917 -2.600481 43.237993 -1.792004 0.000010 0.000000 0.000001 -0.000002 0.000000 7.557003 -4.826304 0.300505 -34.932958 -0.429391 -3.087673 0.315537 -24.058289 0.537032 49.552927 5.342134 6.146077 -0.315539 -33.061489 0.084935 -0.746683 0.764507 -2.906882 0.092042 -7.483319 10.511634 -0.131248 0.000001 -0.000001 0.082184 -0.046743 6.420124 0.000000 -0.000000 0.000000 -7.557002 -4.826298 0.300501 0.100202 -12.638807 7.756142 -0.315556 -24.058262 0.712177 13.870619 2.401070 -2.359401 0.315563 -33.061455 0.096919 -12.972617 0.095656 -4.256823 -0.092061 -7.483409 10.296514 -2.411219 -0.000000 0.000001 -0.082208 -0.046778 6.411420 -0.000000 0.000000 0.000000 
